<svg width="60" height="60" viewBox="0 0 60 60" fill="none" xmlns="http://www.w3.org/2000/svg">
<path d="M45.0167 48C41.0815 48 37.186 47.125 33.3301 45.375C29.4743 43.625 25.9716 41.1296 22.8222 37.8889C19.6741 34.6481 17.25 31.0509 15.55 27.0972C13.85 23.1435 13 19.125 13 15.0417V13H24.1444L25.8917 22.7708L20.5083 28.3611C21.2009 29.625 21.9722 30.8241 22.8222 31.9583C23.6722 33.0926 24.5852 34.1458 25.5611 35.1181C26.4741 36.0579 27.4739 36.9575 28.5607 37.8169C29.6474 38.6764 30.8198 39.4781 32.0778 40.2222L37.5556 34.5833L47 36.5764V48H45.0167Z" fill="#505050"/>
</svg>
