<svg width="60" height="60" viewBox="0 0 60 60" fill="none" xmlns="http://www.w3.org/2000/svg">
<path d="M29.5 13C39.3595 13 47 20.2223 47 29.975C47 39.7278 39.3577 46.95 29.5 46.95C27.7887 46.9544 26.0847 46.7284 24.4338 46.278C24.1237 46.1927 23.7937 46.2168 23.4992 46.3463L20.0255 47.8793C19.8157 47.972 19.5864 48.0117 19.3577 47.995C19.1289 47.9783 18.9078 47.9057 18.7137 47.7835C18.5196 47.6613 18.3585 47.4933 18.2446 47.2943C18.1306 47.0952 18.0673 46.8712 18.0603 46.642L17.9657 43.527C17.9592 43.3375 17.9141 43.1513 17.8332 42.9797C17.7522 42.8082 17.6372 42.655 17.495 42.5295C14.0912 39.4845 12 35.078 12 29.975C12 20.2223 19.6405 13 29.5 13ZM18.9913 34.9398C18.4977 35.722 19.4602 36.604 20.197 36.044L25.7183 31.8545C25.9005 31.7169 26.1226 31.6425 26.3509 31.6425C26.5792 31.6425 26.8013 31.7169 26.9835 31.8545L31.0715 34.917C31.3616 35.1349 31.6938 35.2903 32.047 35.3733C32.4003 35.4564 32.7669 35.4653 33.1237 35.3995C33.4806 35.3338 33.8199 35.1947 34.1203 34.9912C34.4207 34.7876 34.6756 34.524 34.869 34.217L40.0088 26.062C40.5023 25.278 39.5397 24.396 38.803 24.9543L33.2817 29.1473C33.0995 29.2848 32.8774 29.3592 32.6491 29.3592C32.4208 29.3592 32.1987 29.2848 32.0165 29.1473L27.9268 26.0848C27.6367 25.8671 27.3046 25.712 26.9516 25.6291C26.5985 25.5462 26.2321 25.5374 25.8755 25.6032C25.5189 25.6689 25.1798 25.8079 24.8795 26.0112C24.5792 26.2146 24.3244 26.478 24.131 26.7848L18.9913 34.9398Z" fill="#505050"/>
</svg>
