<svg width="60" height="60" viewBox="0 0 60 60" fill="none" xmlns="http://www.w3.org/2000/svg">
<g clip-path="url(#clip0_933_907)">
<path fill-rule="evenodd" clip-rule="evenodd" d="M46.6495 13.2394C47.1659 13.0274 47.7311 12.9543 48.2863 13.0277C48.8415 13.1011 49.3664 13.3183 49.8064 13.6567C50.2463 13.9951 50.5852 14.4424 50.7878 14.9519C50.9905 15.4615 51.0494 16.0147 50.9584 16.554L46.219 44.5968C45.7593 47.3018 42.7167 48.8531 40.1736 47.5057C38.0463 46.3784 34.8867 44.6416 32.0447 42.8295C30.6238 41.9224 26.271 39.0176 26.8059 36.9506C27.2657 35.1833 34.5795 28.542 38.7589 24.5936C40.3993 23.0423 39.6512 22.1474 37.714 23.5743C32.9036 27.1172 25.1802 32.5048 22.6266 34.0214C20.3739 35.3586 19.1995 35.5869 17.7952 35.3586C15.2333 34.9427 12.8573 34.2986 10.9181 33.5138C8.29763 32.4538 8.4251 28.9395 10.916 27.9162L46.6495 13.2394Z" fill="#505050"/>
</g>
<defs>
<clipPath id="clip0_933_907">
<rect width="60" height="60" fill="white"/>
</clipPath>
</defs>
</svg>
