<svg width="60" height="60" viewBox="0 0 60 60" fill="none" xmlns="http://www.w3.org/2000/svg">
<path fill-rule="evenodd" clip-rule="evenodd" d="M38.2357 13.9018C32.857 12.6994 27.2791 12.6994 21.9004 13.9018L21.3208 14.03C19.8078 14.3682 18.4182 15.1193 17.3064 16.1998C16.1946 17.2802 15.404 18.6477 15.0226 20.1504C13.6591 25.5229 13.6591 31.1509 15.0226 36.5234C15.3863 37.9565 16.1225 39.2679 17.1566 40.3248C18.1906 41.3816 19.4857 42.1463 20.9105 42.5412L21.7055 47.2871C21.7308 47.4378 21.7961 47.579 21.8946 47.6959C21.993 47.8128 22.121 47.9011 22.2652 47.9517C22.4094 48.0024 22.5646 48.0134 22.7145 47.9837C22.8644 47.954 23.0036 47.8847 23.1176 47.7829L27.7866 43.6063C31.2914 43.8202 34.809 43.5399 38.2357 42.7738L38.817 42.6455C40.33 42.3073 41.7196 41.5562 42.8314 40.4757C43.9432 39.3953 44.7338 38.0278 45.1152 36.5251C46.4785 31.1526 46.4785 25.5246 45.1152 20.1521C44.7337 18.6492 43.9429 17.2815 42.8307 16.2011C41.7185 15.1206 40.3286 14.3697 38.8153 14.0317L38.2357 13.9018ZM23.3433 20.0119C23.0255 19.9657 22.7015 20.0296 22.4252 20.1931H22.4013C21.7602 20.5693 21.1823 21.0428 20.6899 21.6002C20.2796 22.0737 20.0574 22.5524 19.9993 23.014C19.9651 23.2875 19.989 23.5645 20.0694 23.8261L20.1001 23.8432C20.5617 25.1989 21.1635 26.5033 21.8986 27.7308C22.8465 29.455 24.013 31.0495 25.3692 32.475L25.4102 32.5331L25.4752 32.581L25.5145 32.6272L25.5624 32.6682C26.9928 34.0284 28.5911 35.2005 30.3185 36.1558C32.2931 37.2312 33.4916 37.7389 34.2113 37.9509V37.9612C34.4216 38.0261 34.6131 38.0552 34.8062 38.0552C35.4192 38.0099 35.9994 37.7607 36.4543 37.3474C37.0099 36.8551 37.4801 36.2755 37.8459 35.631V35.619C38.1896 34.9694 38.0733 34.3573 37.5775 33.9419C36.5817 33.0717 35.5048 32.2989 34.3617 31.6339C33.5958 31.2185 32.818 31.4698 32.5034 31.8903L31.8315 32.7383C31.4862 33.1589 30.8605 33.1007 30.8605 33.1007L30.8434 33.111C26.1744 31.9194 24.9281 27.1923 24.9281 27.1923C24.9281 27.1923 24.87 26.5495 25.3025 26.2212L26.1436 25.5442C26.5471 25.216 26.8275 24.4398 26.3949 23.6739C25.7343 22.5298 24.963 21.4533 24.0921 20.4598C23.9021 20.226 23.6357 20.0668 23.3399 20.0102L23.3433 20.0119ZM31.2314 17.957C31.0047 17.957 30.7873 18.047 30.627 18.2073C30.4667 18.3676 30.3766 18.5851 30.3766 18.8118C30.3766 19.0385 30.4667 19.2559 30.627 19.4162C30.7873 19.5765 31.0047 19.6666 31.2314 19.6666C33.3941 19.6666 35.1892 20.3727 36.6099 21.7267C37.3399 22.4669 37.9092 23.344 38.2819 24.3048C38.6563 25.2673 38.8273 26.2948 38.7828 27.3239C38.7781 27.4362 38.7955 27.5483 38.8341 27.6538C38.8727 27.7593 38.9318 27.8562 39.0078 27.9389C39.1614 28.1059 39.375 28.2051 39.6017 28.2147C39.8284 28.2242 40.0496 28.1433 40.2167 27.9897C40.3837 27.8361 40.4829 27.6225 40.4924 27.3958C40.5455 26.1298 40.3353 24.8665 39.8753 23.6859C39.4132 22.4996 38.7126 21.4208 37.8169 20.5163L37.7998 20.4992C36.0372 18.8152 33.8061 17.957 31.2314 17.957ZM31.1733 20.7676C30.9466 20.7676 30.7292 20.8576 30.5689 21.0179C30.4086 21.1782 30.3185 21.3957 30.3185 21.6224C30.3185 21.8491 30.4086 22.0665 30.5689 22.2268C30.7292 22.3871 30.9466 22.4772 31.1733 22.4772H31.2024C32.7615 22.5883 33.8967 23.108 34.6917 23.9611C35.5072 24.8399 35.9295 25.9323 35.897 27.2829C35.8918 27.5096 35.9768 27.7291 36.1334 27.8931C36.2901 28.0571 36.5054 28.1522 36.7321 28.1574C36.9588 28.1626 37.1783 28.0775 37.3423 27.9209C37.5063 27.7643 37.6014 27.5489 37.6066 27.3222C37.6476 25.5494 37.0766 24.0193 35.9449 22.7986V22.7952C34.7874 21.554 33.1992 20.8975 31.2879 20.7693L31.2588 20.7659L31.1733 20.7676ZM31.1408 23.6312C31.0264 23.6211 30.9112 23.6341 30.8019 23.6696C30.6927 23.705 30.5917 23.7621 30.505 23.8374C30.4183 23.9127 30.3477 24.0048 30.2974 24.108C30.247 24.2112 30.218 24.3235 30.212 24.4382C30.2061 24.5529 30.2233 24.6676 30.2626 24.7755C30.3019 24.8834 30.3626 24.9822 30.441 25.0662C30.5194 25.1501 30.6139 25.2174 30.7189 25.264C30.8238 25.3106 30.9371 25.3355 31.0519 25.3374C31.7665 25.375 32.223 25.5904 32.5102 25.8793C32.7992 26.17 33.0146 26.6367 33.0539 27.3667C33.056 27.4814 33.0812 27.5945 33.128 27.6993C33.1748 27.804 33.2422 27.8983 33.3261 27.9765C33.4101 28.0547 33.509 28.1151 33.6168 28.1543C33.7247 28.1934 33.8393 28.2105 33.9539 28.2044C34.0685 28.1983 34.1806 28.1692 34.2837 28.1189C34.3868 28.0685 34.4787 27.9979 34.5539 27.9113C34.6292 27.8247 34.6862 27.7238 34.7216 27.6147C34.757 27.5055 34.7701 27.3904 34.7601 27.2761C34.7054 26.2503 34.384 25.3442 33.7258 24.6775C33.0641 24.0107 32.1632 23.6859 31.1408 23.6312Z" fill="#505050"/>
</svg>
