<svg width="60" height="60" viewBox="0 0 60 60" fill="none" xmlns="http://www.w3.org/2000/svg">
<path fill-rule="evenodd" clip-rule="evenodd" d="M7.5325 22.8775C7.5 24.2275 7.5 25.755 7.5 27.5V32.5C7.5 39.57 7.5 43.1075 9.6975 45.3025C11.8925 47.5 15.43 47.5 22.5 47.5H37.5C44.57 47.5 48.1075 47.5 50.3025 45.3025C52.5 43.1075 52.5 39.57 52.5 32.5V27.5C52.5 25.755 52.5 24.225 52.4675 22.8775L32.4275 34.01C31.6849 34.4224 30.8494 34.6388 30 34.6388C29.1506 34.6388 28.3151 34.4224 27.5725 34.01L7.5325 22.8775ZM8.1075 17.575C8.31999 17.6269 8.52438 17.7077 8.715 17.815L30 29.64L51.285 17.815C51.4761 17.7088 51.6804 17.6281 51.8925 17.575C51.5675 16.39 51.0675 15.4625 50.3025 14.6975C48.1075 12.5 44.57 12.5 37.5 12.5H22.5C15.43 12.5 11.8925 12.5 9.6975 14.6975C8.93 15.4625 8.4325 16.39 8.1075 17.5725" fill="#505050"/>
</svg>
