<svg width="24" height="24" viewBox="0 0 24 24" fill="none" xmlns="http://www.w3.org/2000/svg">
<path d="M16.5 6.75024V17.3302C16.5 19.4202 14.97 21.2802 12.89 21.4802C12.3343 21.5358 11.7732 21.4741 11.2429 21.2993C10.7125 21.1245 10.2247 20.8403 9.81104 20.4653C9.39733 20.0902 9.06689 19.6325 8.84107 19.1218C8.61524 18.6111 8.49905 18.0587 8.5 17.5002V5.14024C8.5 3.83024 9.44 2.64024 10.74 2.51024C11.0886 2.47379 11.441 2.51105 11.7743 2.61963C12.1076 2.7282 12.4144 2.90565 12.6746 3.14046C12.9349 3.37526 13.1429 3.66218 13.2851 3.98258C13.4273 4.30298 13.5005 4.64971 13.5 5.00024V15.5002C13.5 16.0502 13.05 16.5002 12.5 16.5002C11.95 16.5002 11.5 16.0502 11.5 15.5002V6.75024C11.5 6.34024 11.16 6.00024 10.75 6.00024C10.34 6.00024 10 6.34024 10 6.75024V15.3602C10 16.6702 10.94 17.8602 12.24 17.9902C12.5886 18.0267 12.941 17.9894 13.2743 17.8809C13.6076 17.7723 13.9144 17.5948 14.1746 17.36C14.4349 17.1252 14.6429 16.8383 14.7851 16.5179C14.9273 16.1975 15.0005 15.8508 15 15.5002V5.17024C15 3.08024 13.47 1.22024 11.39 1.02024C10.8345 0.965511 10.2737 1.02771 9.74369 1.20283C9.21369 1.37795 8.72622 1.66212 8.31269 2.03704C7.89915 2.41195 7.5687 2.86931 7.34262 3.37966C7.11653 3.89001 6.99982 4.44205 7 5.00024V17.2702C7 20.1402 9.1 22.7102 11.96 22.9802C15.25 23.2802 18 20.7202 18 17.5002V6.75024C18 6.34024 17.66 6.00024 17.25 6.00024C16.84 6.00024 16.5 6.34024 16.5 6.75024Z" fill="#505050"/>
</svg>
