<svg width="32" height="32" viewBox="0 0 32 32" fill="none" xmlns="http://www.w3.org/2000/svg">
<path d="M11.5 6L11.187 6.406L10 8H3V26H29V8H22L20.812 6.406L20.5 6H11.5ZM12.5 8H19.5L20.688 9.594L21 10H27V24H5V10H11L11.313 9.594L12.5 8ZM8 11C7.73478 11 7.48043 11.1054 7.29289 11.2929C7.10536 11.4804 7 11.7348 7 12C7 12.2652 7.10536 12.5196 7.29289 12.7071C7.48043 12.8946 7.73478 13 8 13C8.26522 13 8.51957 12.8946 8.70711 12.7071C8.89464 12.5196 9 12.2652 9 12C9 11.7348 8.89464 11.4804 8.70711 11.2929C8.51957 11.1054 8.26522 11 8 11ZM16 11C12.698 11 10 13.698 10 17C10 20.302 12.698 23 16 23C19.302 23 22 20.302 22 17C22 13.698 19.302 11 16 11ZM16 13C18.22 13 20 14.78 20 17C20 19.22 18.22 21 16 21C13.78 21 12 19.22 12 17C12 14.78 13.78 13 16 13Z" fill="#00972A"/>
</svg>
