<svg width="24" height="24" viewBox="0 0 24 24" fill="none" xmlns="http://www.w3.org/2000/svg">
<circle cx="12" cy="12" r="12" fill="#00972A"/>
<path d="M16.5098 18.5H7.80859V16.9443L11.1396 13.5693C11.7842 12.9131 12.3145 12.3477 12.7305 11.873C13.1465 11.3926 13.4541 10.9385 13.6533 10.5107C13.8584 10.083 13.9609 9.61719 13.9609 9.11328C13.9609 8.49219 13.7822 8.02344 13.4248 7.70703C13.0674 7.38477 12.5957 7.22363 12.0098 7.22363C11.4531 7.22363 10.9375 7.33496 10.4629 7.55762C9.99414 7.77441 9.50781 8.08496 9.00391 8.48926L7.87012 7.12695C8.22754 6.82227 8.6084 6.54395 9.0127 6.29199C9.42285 6.04004 9.87988 5.84082 10.3838 5.69434C10.8877 5.54199 11.4619 5.46582 12.1064 5.46582C12.9209 5.46582 13.624 5.6123 14.2158 5.90527C14.8076 6.19238 15.2617 6.59375 15.5781 7.10938C15.9004 7.625 16.0615 8.22559 16.0615 8.91113C16.0615 9.60254 15.9238 10.2412 15.6484 10.8271C15.373 11.4131 14.9805 11.9932 14.4707 12.5674C13.9609 13.1357 13.3545 13.7539 12.6514 14.4219L10.4277 16.5928V16.6895H16.5098V18.5Z" fill="white"/>
</svg>
