<svg width="24" height="24" viewBox="0 0 24 24" fill="none" xmlns="http://www.w3.org/2000/svg">
<circle cx="12" cy="12" r="12" fill="#00972A"/>
<path d="M16.9756 15.6787H15.2354V18.5H13.1963V15.6787H7.35156V14.1143L13.2227 5.61523H15.2354V13.9648H16.9756V15.6787ZM13.1963 13.9648V10.7744C13.1963 10.5107 13.1992 10.2441 13.2051 9.97461C13.2168 9.69922 13.2285 9.43555 13.2402 9.18359C13.252 8.93164 13.2637 8.7002 13.2754 8.48926C13.2871 8.27246 13.2959 8.09375 13.3018 7.95312H13.2314C13.1201 8.1875 12.9971 8.42773 12.8623 8.67383C12.7275 8.91406 12.584 9.14844 12.4316 9.37695L9.26758 13.9648H13.1963Z" fill="white"/>
</svg>
