<svg width="24" height="24" viewBox="0 0 24 24" fill="none" xmlns="http://www.w3.org/2000/svg">
<circle cx="12" cy="12" r="12" fill="#00972A"/>
<path d="M16.0176 9.08594C16.0176 9.66602 15.9004 10.1699 15.666 10.5977C15.4316 11.0254 15.1094 11.377 14.6992 11.6523C14.2949 11.9219 13.8262 12.1152 13.293 12.2324V12.2939C14.3184 12.4229 15.0918 12.7451 15.6133 13.2607C16.1406 13.7764 16.4043 14.459 16.4043 15.3086C16.4043 16.0527 16.2256 16.7178 15.8682 17.3037C15.5107 17.8838 14.9629 18.3408 14.2246 18.6748C13.4863 19.0088 12.5371 19.1758 11.377 19.1758C10.6797 19.1758 10.0322 19.1201 9.43457 19.0088C8.84277 18.8975 8.28027 18.7188 7.74707 18.4727V16.6357C8.29199 16.9053 8.87207 17.1133 9.4873 17.2598C10.1025 17.4062 10.6855 17.4795 11.2363 17.4795C12.3086 17.4795 13.0732 17.2803 13.5303 16.8818C13.9873 16.4775 14.2158 15.9209 14.2158 15.2119C14.2158 14.7549 14.0957 14.3799 13.8555 14.0869C13.6211 13.7939 13.2549 13.5742 12.7568 13.4277C12.2646 13.2812 11.6289 13.208 10.8496 13.208H9.71582V11.5469H10.8584C11.6025 11.5469 12.2002 11.459 12.6514 11.2832C13.1025 11.1016 13.4277 10.8525 13.627 10.5361C13.832 10.2197 13.9346 9.85059 13.9346 9.42871C13.9346 8.87793 13.7559 8.4502 13.3984 8.14551C13.041 7.83496 12.5107 7.67969 11.8076 7.67969C11.374 7.67969 10.9785 7.72949 10.6211 7.8291C10.2695 7.92871 9.94434 8.05469 9.64551 8.20703C9.34668 8.35938 9.0625 8.52344 8.79297 8.69922L7.7998 7.2666C8.28613 6.90332 8.86621 6.5957 9.54004 6.34375C10.2139 6.0918 10.999 5.96582 11.8955 5.96582C13.2139 5.96582 14.2305 6.25 14.9453 6.81836C15.6602 7.38086 16.0176 8.13672 16.0176 9.08594Z" fill="white"/>
</svg>
