<svg width="24" height="24" viewBox="0 0 24 24" fill="none" xmlns="http://www.w3.org/2000/svg">
<circle cx="12" cy="12" r="12" fill="#00972A"/>
<path d="M7.82617 13.5244C7.82617 12.7686 7.87891 12.0244 7.98438 11.292C8.0957 10.5596 8.2832 9.87402 8.54688 9.23535C8.81055 8.59668 9.17383 8.03418 9.63672 7.54785C10.1055 7.06152 10.6943 6.68066 11.4033 6.40527C12.1123 6.12402 12.9648 5.9834 13.9609 5.9834C14.2188 5.9834 14.5088 5.99512 14.8311 6.01855C15.1533 6.04199 15.4199 6.08008 15.6309 6.13281V7.84668C15.4023 7.78223 15.1504 7.73242 14.875 7.69727C14.6055 7.66211 14.3359 7.64453 14.0664 7.64453C12.9883 7.64453 12.1475 7.84961 11.5439 8.25977C10.9404 8.66406 10.5098 9.2207 10.252 9.92969C9.99414 10.6328 9.84473 11.4385 9.80371 12.3467H9.90918C10.085 12.0537 10.3047 11.793 10.5684 11.5645C10.832 11.3359 11.1543 11.1543 11.5352 11.0195C11.916 10.8789 12.3584 10.8086 12.8623 10.8086C13.6123 10.8086 14.2656 10.9668 14.8223 11.2832C15.3789 11.5938 15.8066 12.0449 16.1055 12.6367C16.4102 13.2285 16.5625 13.9463 16.5625 14.79C16.5625 15.6982 16.3896 16.4805 16.0439 17.1367C15.7041 17.793 15.2178 18.2969 14.585 18.6484C13.958 19 13.2109 19.1758 12.3438 19.1758C11.7051 19.1758 11.1104 19.0586 10.5596 18.8242C10.0146 18.5898 9.53711 18.2383 9.12695 17.7695C8.7168 17.3008 8.39746 16.7148 8.16895 16.0117C7.94043 15.3027 7.82617 14.4736 7.82617 13.5244ZM12.3086 17.4707C12.9766 17.4707 13.5127 17.2539 13.917 16.8203C14.3271 16.3809 14.5322 15.71 14.5322 14.8076C14.5322 14.0752 14.3506 13.4951 13.9873 13.0674C13.6299 12.6396 13.0908 12.4258 12.3701 12.4258C11.8779 12.4258 11.4473 12.5312 11.0781 12.7422C10.709 12.9531 10.4219 13.2197 10.2168 13.542C10.0176 13.8643 9.91797 14.1924 9.91797 14.5264C9.91797 14.8662 9.96777 15.209 10.0674 15.5547C10.167 15.9004 10.3164 16.2197 10.5156 16.5127C10.7148 16.7998 10.9639 17.0312 11.2627 17.207C11.5615 17.3828 11.9102 17.4707 12.3086 17.4707Z" fill="white"/>
</svg>
