<svg width="24" height="24" viewBox="0 0 24 24" fill="none" xmlns="http://www.w3.org/2000/svg">
<circle cx="12" cy="12" r="12" fill="#00972A"/>
<path d="M12.1768 10.9668C13.0029 10.9668 13.7295 11.1162 14.3564 11.415C14.9893 11.708 15.4814 12.1416 15.833 12.7158C16.1846 13.2842 16.3604 13.9814 16.3604 14.8076C16.3604 15.71 16.1699 16.4893 15.7891 17.1455C15.4082 17.7959 14.8486 18.2969 14.1104 18.6484C13.3721 19 12.4727 19.1758 11.4121 19.1758C10.7383 19.1758 10.1084 19.1172 9.52246 19C8.94238 18.8828 8.44141 18.707 8.01953 18.4727V16.6094C8.45898 16.8555 8.98633 17.0576 9.60156 17.2158C10.2168 17.3682 10.8057 17.4443 11.3682 17.4443C11.9658 17.4443 12.4785 17.3564 12.9062 17.1807C13.334 17.0049 13.6621 16.7354 13.8906 16.3721C14.125 16.0088 14.2422 15.5488 14.2422 14.9922C14.2422 14.2539 14.0049 13.6855 13.5303 13.2871C13.0615 12.8828 12.3262 12.6807 11.3242 12.6807C10.9727 12.6807 10.5977 12.7129 10.1992 12.7773C9.80664 12.8359 9.47852 12.9004 9.21484 12.9707L8.30957 12.4346L8.79297 6.15039H15.4727V7.96973H10.6123L10.3311 11.1689C10.542 11.1221 10.7939 11.0781 11.0869 11.0371C11.3799 10.9902 11.7432 10.9668 12.1768 10.9668Z" fill="white"/>
</svg>
