<svg width="20" height="20" viewBox="0 0 20 20" fill="none" xmlns="http://www.w3.org/2000/svg">
<path d="M20 9.375V13.125C20 13.4565 19.8683 13.7745 19.6339 14.0089C19.3995 14.2433 19.0815 14.375 18.75 14.375H17.7586L15 17.1336C14.8843 17.2502 14.7467 17.3426 14.595 17.4055C14.4433 17.4684 14.2806 17.5005 14.1164 17.5H8.07109C7.90688 17.5005 7.7442 17.4684 7.59251 17.4055C7.44082 17.3426 7.30315 17.2502 7.1875 17.1336L4.11641 14.0625C3.99983 13.9468 3.9074 13.8092 3.8445 13.6575C3.7816 13.5058 3.74948 13.3431 3.75 13.1789V11.5625H1.875V13.4375C1.875 13.6033 1.80915 13.7622 1.69194 13.8794C1.57473 13.9967 1.41576 14.0625 1.25 14.0625C1.08424 14.0625 0.925268 13.9967 0.808058 13.8794C0.690848 13.7622 0.625 13.6033 0.625 13.4375V8.4375C0.625 8.27174 0.690848 8.11277 0.808058 7.99556C0.925268 7.87835 1.08424 7.8125 1.25 7.8125C1.41576 7.8125 1.57473 7.87835 1.69194 7.99556C1.80915 8.11277 1.875 8.27174 1.875 8.4375V10.3125H3.75V6.25C3.75 5.91848 3.8817 5.60054 4.11612 5.36612C4.35054 5.1317 4.66848 5 5 5H9.6875V3.125H7.8125C7.64674 3.125 7.48777 3.05915 7.37056 2.94194C7.25335 2.82473 7.1875 2.66576 7.1875 2.5C7.1875 2.33424 7.25335 2.17527 7.37056 2.05806C7.48777 1.94085 7.64674 1.875 7.8125 1.875H12.8125C12.9783 1.875 13.1372 1.94085 13.2544 2.05806C13.3717 2.17527 13.4375 2.33424 13.4375 2.5C13.4375 2.66576 13.3717 2.82473 13.2544 2.94194C13.1372 3.05915 12.9783 3.125 12.8125 3.125H10.9375V5H14.1164C14.2806 4.99948 14.4433 5.0316 14.595 5.0945C14.7467 5.1574 14.8843 5.24983 15 5.36641L17.7586 8.125H18.75C19.0815 8.125 19.3995 8.2567 19.6339 8.49112C19.8683 8.72554 20 9.04348 20 9.375Z" fill="#A8A8A8"/>
</svg>
