<svg width="20" height="20" viewBox="0 0 20 20" fill="none" xmlns="http://www.w3.org/2000/svg">
<path d="M6.92575 1.03164C6.78512 1.03359 6.64059 1.0457 6.48825 1.06914C5.72653 1.18555 5.21091 1.41875 4.91794 1.71172C4.62497 2.00508 4.50778 2.35937 4.57028 2.88359C4.62106 3.29336 4.69528 3.50078 4.77731 3.63516C4.86325 3.76992 4.97653 3.86445 5.18747 4.02344C5.59372 4.32812 6.25778 4.83203 7.13669 6.1875C7.45309 6.28125 7.71481 6.26953 7.98044 6.18359C8.21481 6.10938 8.44919 5.97266 8.68356 5.79687C8.55856 5.28125 8.63669 4.79297 8.74216 4.35937C8.86716 3.85039 9.01559 3.39297 9.01559 2.95664C9.01559 1.98594 8.32419 1.07773 7.06247 1.03281C7.0195 1.03125 6.97262 1.03086 6.92575 1.03164ZM8.68747 6.63672C8.53122 6.72266 8.37106 6.80078 8.19528 6.85547C7.99606 6.91797 7.78122 6.95313 7.56247 6.95313L9.37106 13.4219L10.5078 13.1367L8.68747 6.63672ZM13.4297 13.1719C13.3711 13.1719 13.3086 13.1797 13.2461 13.1953L7.04294 14.625C6.37887 14.7773 6.25778 15.4805 6.53512 15.8945C5.88669 16.0859 5.72653 16.8164 5.99215 17.2969C4.83981 17.5078 4.92184 19.1562 6.24997 19.1562H14.7422C16.1562 19.1562 16.1562 17.2734 14.7422 17.2734H10.7656L14.4062 16.8477C15.6523 16.7031 15.4882 14.832 14.2382 14.9766L11.1211 15.3398L11.1093 15.2969L13.5156 14.7461C14.4687 14.5273 14.3086 13.1914 13.4687 13.1719H13.4297Z" fill="#A8A8A8"/>
</svg>
