<svg width="20" height="20" viewBox="0 0 20 20" fill="none" xmlns="http://www.w3.org/2000/svg">
<path d="M16.9917 7.13335L15.9584 8.68335C16.4527 9.66925 16.6947 10.7624 16.6627 11.8648C16.6307 12.9672 16.3257 14.0445 15.775 15H4.22503C3.50933 13.7584 3.21277 12.3193 3.37931 10.8959C3.54585 9.47253 4.16662 8.14071 5.14959 7.09787C6.13257 6.05504 7.42542 5.35672 8.83648 5.10643C10.2475 4.85614 11.7017 5.06721 12.9834 5.70835L14.5334 4.67502C12.8913 3.61078 10.9271 3.15832 8.98497 3.39691C7.0428 3.6355 5.24654 4.54993 3.91091 5.97997C2.57528 7.41001 1.78547 9.26445 1.67987 11.2184C1.57428 13.1723 2.15963 15.101 3.33336 16.6667H16.6667C17.6888 15.3011 18.2673 13.6547 18.3239 11.9498C18.3806 10.245 17.9126 8.5638 16.9834 7.13335H16.9917Z" fill="#A8A8A8"/>
<path d="M8.82499 12.8417C8.97978 12.9967 9.1636 13.1196 9.36593 13.2035C9.56826 13.2874 9.78513 13.3305 10.0042 13.3305C10.2232 13.3305 10.4401 13.2874 10.6424 13.2035C10.8447 13.1196 11.0285 12.9967 11.1833 12.8417L15.9 5.76672L8.82499 10.4834C8.67003 10.6382 8.5471 10.822 8.46323 11.0243C8.37935 11.2267 8.33618 11.4435 8.33618 11.6626C8.33618 11.8816 8.37935 12.0985 8.46323 12.3008C8.5471 12.5031 8.67003 12.6869 8.82499 12.8417Z" fill="#A8A8A8"/>
</svg>
