<svg width="150" height="50" viewBox="0 0 150 50" fill="none" xmlns="http://www.w3.org/2000/svg">
<g clip-path="url(#clip0_1116_121)">
<path d="M95.4031 41.978H89.7344V8.02303H95.4031V22.5769H101.846V8.02303H107.619V41.978H101.846V27.4241H95.4031V41.978Z" stroke="#505050" stroke-miterlimit="10"/>
<path d="M117.154 8.02303V34.2167C117.154 35.446 117.42 36.3031 117.953 36.7879C118.554 37.2577 119.311 37.5148 120.092 37.5148C120.873 37.5148 121.63 37.2577 122.231 36.7879C122.764 36.302 123.03 35.4449 123.03 34.2167V8.02303H128.39V33.8767C128.39 36.6261 127.677 38.7365 126.25 40.2081C124.823 41.6796 122.719 42.4157 119.938 42.4162C117.154 42.4162 115.049 41.6805 113.623 40.2089C112.197 38.7374 111.484 36.6269 111.483 33.8776V8.02303H117.154Z" stroke="#505050" stroke-miterlimit="10"/>
<path d="M140.812 8.02303C143.767 8.02303 145.907 8.66987 147.229 9.96355C148.552 11.2572 149.214 13.2135 149.214 15.8324V17.0448C149.27 18.5272 148.971 20.0026 148.34 21.3616C147.761 22.4878 146.774 23.3823 145.556 23.8835C146.263 24.1074 146.916 24.4605 147.478 24.9225C148.04 25.3846 148.499 25.9465 148.83 26.576C149.508 28.0175 149.833 29.5838 149.783 31.1596V33.9248C149.783 36.544 149.061 38.5407 147.618 39.915C146.174 41.2892 144.026 41.9766 141.175 41.9772H132.256V8.02222L140.812 8.02303ZM137.926 12.8743V21.8476H140.142C141.05 21.8984 141.944 21.6208 142.641 21.0718C143.243 20.5551 143.543 19.6172 143.544 18.258V16.3669C143.544 15.1381 143.312 14.2487 142.849 13.6986C142.385 13.1485 141.654 12.8745 140.657 12.8764L137.926 12.8743ZM137.926 26.6985V37.1275H141.173C141.571 37.1542 141.972 37.1033 142.349 36.9781C142.725 36.8529 143.071 36.6561 143.364 36.3998C143.862 35.915 144.11 35.0419 144.11 33.7805V30.8204C144.11 29.2368 143.827 28.1541 143.26 27.5725C142.693 26.9909 141.757 26.6998 140.451 26.6993L137.926 26.6985Z" stroke="#505050" stroke-miterlimit="10"/>
<path d="M85.2385 0H82.582V50H85.2385V0Z" fill="#E35200"/>
<path fill-rule="evenodd" clip-rule="evenodd" d="M60.8711 16.1725C60.8711 13.4242 61.6099 11.3138 63.0877 9.84112C64.5654 8.36847 66.696 7.63269 69.4793 7.63379C72.2621 7.63379 74.3922 8.36956 75.8697 9.84112C77.3472 11.3127 78.086 13.4231 78.0863 16.1725V33.8287C78.0863 36.5778 77.3474 38.6882 75.8697 40.1601C74.392 41.6319 72.2618 42.3674 69.4793 42.3666C66.6954 42.3666 64.5648 41.6311 63.0877 40.1601C61.6105 38.6891 60.8716 36.5786 60.8711 33.8287V16.1725ZM66.5406 34.1679C66.5406 35.398 66.8069 36.263 67.3396 36.7629C67.9331 37.2479 68.6927 37.5149 69.4787 37.5149C70.2647 37.5149 71.0242 37.2479 71.6178 36.7629C72.1507 36.2625 72.4171 35.3975 72.4168 34.1679V15.8317C72.4168 14.6032 72.1504 13.7382 71.6178 13.2366C71.0242 12.7517 70.2647 12.4847 69.4787 12.4847C68.6927 12.4847 67.9331 12.7517 67.3396 13.2366C66.8069 13.7387 66.5406 14.6038 66.5406 15.8317V34.1679Z" fill="#505050"/>
<path fill-rule="evenodd" clip-rule="evenodd" d="M19.8438 41.9781H14.1232L13.1433 35.8174H6.18591L5.20648 41.9781H0L5.77308 8.02319H14.0734L19.8438 41.9781ZM12.3705 31.2095L9.63884 14.0376L6.90717 31.2095H12.3705Z" fill="#505050"/>
<path d="M27.8841 34.2169V8.02319H22.2129V33.8777C22.2137 36.6271 22.9273 38.7375 24.3535 40.2091C25.7797 41.6806 27.8843 42.4164 30.6674 42.4164C33.4516 42.4159 35.5565 41.6798 36.9822 40.2082C38.4078 38.7367 39.1206 36.6262 39.1206 33.8769V8.02319H33.7603V34.2169C33.7597 35.4451 33.4936 36.3021 32.9618 36.7881C32.3606 37.2578 31.6038 37.5149 30.8225 37.5149C30.0411 37.5149 29.2843 37.2578 28.6832 36.7881C28.1505 36.3032 27.8841 35.4462 27.8841 34.2169Z" fill="#505050"/>
<path d="M58.8609 8.02319H41.3359V12.8741H47.2636V41.9786H52.9332V12.8745H58.8609V8.02319Z" fill="#505050"/>
</g>
<defs>
<clipPath id="clip0_1116_121">
<rect width="150" height="50" fill="white"/>
</clipPath>
</defs>
</svg>
