<svg width="20" height="20" viewBox="0 0 20 20" fill="none" xmlns="http://www.w3.org/2000/svg">
<g clip-path="url(#clip0_1247_498)">
<path d="M6.89988 0.44875C6.93797 0.319161 7.01701 0.205398 7.12518 0.1245C7.23334 0.0436015 7.36481 -7.8983e-05 7.49988 1.07215e-07H12.4999C12.5989 7.52421e-05 12.6964 0.0236575 12.7845 0.0688055C12.8726 0.113953 12.9487 0.179376 13.0065 0.259688C13.0644 0.339999 13.1023 0.432903 13.1173 0.530751C13.1322 0.628599 13.1237 0.728592 13.0924 0.8225L10.8674 7.5H15.6249C15.7419 7.49992 15.8566 7.5327 15.956 7.59462C16.0553 7.65654 16.1352 7.74511 16.1867 7.85023C16.2381 7.95536 16.259 8.07282 16.247 8.18924C16.235 8.30566 16.1905 8.41637 16.1186 8.50875L7.36863 19.7588C7.27899 19.8746 7.15153 19.9552 7.0085 19.9866C6.86547 20.0181 6.71595 19.9983 6.58602 19.9307C6.4561 19.8631 6.35403 19.7521 6.29762 19.6169C6.24121 19.4818 6.23404 19.3311 6.27738 19.1912L8.52863 11.875H4.37488C4.27771 11.8751 4.18186 11.8525 4.09496 11.809C4.00805 11.7655 3.93247 11.7024 3.87423 11.6246C3.81599 11.5468 3.77668 11.4566 3.75944 11.3609C3.74219 11.2653 3.74748 11.167 3.77488 11.0738L6.89988 0.44875Z" fill="#A8A8A8"/>
</g>
<defs>
<clipPath id="clip0_1247_498">
<rect width="20" height="20" fill="white"/>
</clipPath>
</defs>
</svg>
