<svg width="24" height="24" viewBox="0 0 24 24" fill="none" xmlns="http://www.w3.org/2000/svg">
<path d="M4.20601 3C4.06867 3 4 3.09512 4 3.21402V21.786C4 21.9049 4.09156 22 4.20601 22H19.794C19.9084 22 20 21.9049 20 21.786V3.21402C20 3.07134 19.9084 3 19.794 3H4.20601ZM6.28898 5.37797H17.7339V10.1339H6.28898V5.37797ZM6.28898 12.5119H8.57797V14.8899H6.28898V12.5119ZM10.867 12.5119H13.1559V14.8899H10.867V12.5119ZM15.4449 12.5119H17.7339V19.6458H15.4449V12.5119ZM6.28898 17.2678H8.57797V19.6458H6.28898V17.2678ZM10.867 17.2678H13.1559V19.6458H10.867V17.2678Z" fill="#007320"/>
</svg>
