<svg width="50" height="50" viewBox="0 0 50 50" fill="none" xmlns="http://www.w3.org/2000/svg">
<path d="M37 34.9472H13C12.9982 33.2377 13.3537 31.5471 14.043 29.9866C14.7324 28.426 15.7402 27.0308 17 25.8925V20.099C17 17.951 17.8429 15.891 19.3431 14.3721C20.8434 12.8533 22.8783 12 25 12C27.1217 12 29.1566 12.8533 30.6569 14.3721C32.1571 15.891 33 17.951 33 20.099V25.8925C34.2598 27.0308 35.2676 28.426 35.957 29.9866C36.6463 31.5471 37.0018 33.2377 37 34.9472ZM21.2267 36.297H28.7733C28.4979 37.0874 27.987 37.7718 27.3112 38.2559C26.6354 38.74 25.8279 39 25 39C24.1721 39 23.3646 38.74 22.6888 38.2559C22.013 37.7718 21.5021 37.0874 21.2267 36.297Z" fill="#505050"/>
</svg>
