<svg width="60" height="60" viewBox="0 0 60 60" fill="none" xmlns="http://www.w3.org/2000/svg">
<g clip-path="url(#clip0_1071_522)">
<path d="M58.2938 24.5923C58.6439 26.6059 58.8183 28.6461 58.815 30.6898C58.815 39.8173 55.5525 47.5348 49.875 52.7586H49.8825C44.9175 57.3448 38.0925 59.9998 30 59.9998C22.0435 59.9998 14.4129 56.8391 8.7868 51.213C3.16071 45.587 0 37.9563 0 29.9998C0 22.0433 3.16071 14.4127 8.7868 8.78664C14.4129 3.16055 22.0435 -0.000160615 30 -0.000160615C37.4465 -0.0830879 44.6371 2.71415 50.07 7.80734L41.505 16.3723C38.4083 13.422 34.2766 11.806 30 11.8723C22.1737 11.8723 15.525 17.1523 13.155 24.2623C11.9006 27.9883 11.9006 32.0226 13.155 35.7486H13.1662C15.5475 42.8473 22.185 48.1273 30.0113 48.1273C34.0537 48.1273 37.5263 47.0923 40.2188 45.2623H40.2075C41.7712 44.2269 43.1088 42.8853 44.1394 41.3184C45.17 39.7515 45.8723 37.992 46.2038 36.1461H30V24.5961L58.2938 24.5923Z" fill="#505050"/>
</g>
<defs>
<clipPath id="clip0_1071_522">
<rect width="60" height="60" fill="white"/>
</clipPath>
</defs>
</svg>
