<svg width="60" height="60" viewBox="0 0 60 60" fill="none" xmlns="http://www.w3.org/2000/svg">
<g clip-path="url(#clip0_1071_512)">
<path d="M30 60C43.1461 60 50.4541 60 55.227 55.227C60 50.4541 60 43.1504 60 30C60 16.8496 60 9.54594 55.227 4.77298C50.4541 0 43.1461 0 30 0C16.8539 0 9.54594 0 4.77298 4.77298C0 9.54594 0 16.8539 0 30C0 43.1461 0 50.4541 4.77298 55.227C9.54594 60 16.8539 60 30 60Z" fill="#505050"/>
<path fill-rule="evenodd" clip-rule="evenodd" d="M32.2436 22.4765C33.2021 22.4765 33.979 21.7765 33.979 20.913C33.979 20.0496 33.2021 19.3496 32.2436 19.3496C31.2852 19.3496 30.5083 20.0496 30.5083 20.913C30.5083 21.7765 31.2852 22.4765 32.2436 22.4765ZM26.7012 26.3596L27.5335 24.0684H33.3574L30.4123 34.4488L34.7816 31.422L36.0698 33.3151L31.695 36.2831C29.7714 37.555 27.5172 35.9208 28.0938 33.7579L30.1164 26.3401L26.7012 26.3596ZM37.3191 27.9764C37.3191 25.8178 39.0012 24.0684 41.2674 24.0684H47.2035V36.4474H44.6957V31.8627H42.6492L39.915 36.4474H36.9111L40.1272 31.521C38.5584 31.1141 37.3191 29.7389 37.3191 27.9764ZM39.9423 28.0362C39.9423 28.9588 40.5809 29.7683 41.6123 29.7683H44.6989V26.2345H41.6123C40.5276 26.2345 39.9423 27.1136 39.9423 28.0362ZM23.3915 21.1914V34.1623H25.1323V39.8198H22.6931V36.4699H13.5692V39.8144H11.1289V34.1569H12.2691C12.825 33.3855 13.7683 31.3717 13.7683 28.1142V21.1914H23.3915ZM16.1945 23.4925V27.9717C16.1945 30.9691 15.3785 33.256 14.8291 34.1547H20.8892V23.4925H16.1945Z" fill="white"/>
</g>
<defs>
<clipPath id="clip0_1071_512">
<rect width="60" height="60" fill="white"/>
</clipPath>
</defs>
</svg>
