<svg width="60" height="60" viewBox="0 0 60 60" fill="none" xmlns="http://www.w3.org/2000/svg">
<g clip-path="url(#clip0_1071_518)">
<path fill-rule="evenodd" clip-rule="evenodd" d="M49.4426 11.0749C50.0604 10.8149 50.7366 10.7252 51.4008 10.8152C52.065 10.9052 52.693 11.1716 53.2193 11.5866C53.7457 12.0017 54.1511 12.5502 54.3935 13.1751C54.6359 13.8 54.7064 14.4785 54.5976 15.1399L48.9276 49.5324C48.3776 52.8499 44.7376 54.7524 41.6951 53.0999C39.1501 51.7174 35.3701 49.5874 31.9701 47.3649C30.2701 46.2524 25.0626 42.6899 25.7026 40.1549C26.2526 37.9874 35.0026 29.8424 40.0026 24.9999C41.9651 23.0974 41.0701 21.9999 38.7526 23.7499C32.9976 28.0949 23.7576 34.7024 20.7026 36.5624C18.0076 38.2024 16.6026 38.4824 14.9226 38.2024C11.8576 37.6924 9.01511 36.9024 6.69511 35.9399C3.56011 34.6399 3.71261 30.3299 6.69261 29.0749L49.4426 11.0749Z" fill="#505050"/>
</g>
<defs>
<clipPath id="clip0_1071_518">
<rect width="60" height="60" fill="white"/>
</clipPath>
</defs>
</svg>
