<svg width="62" height="40" viewBox="0 0 62 40" fill="none" xmlns="http://www.w3.org/2000/svg">
<g clip-path="url(#clip0_1083_517)">
<path fill-rule="evenodd" clip-rule="evenodd" d="M20.573 17.755V0H61.828V23.498H61.747V30.461H55.029C54.4581 29.1451 53.515 28.0249 52.3157 27.2379C51.1165 26.451 49.7134 26.0318 48.279 26.0318C46.8446 26.0318 45.4415 26.451 44.2423 27.2379C43.043 28.0249 42.0999 29.1451 41.529 30.461H18.059C17.4881 29.1451 16.545 28.0249 15.3457 27.2379C14.1465 26.451 12.7434 26.0318 11.309 26.0318C9.87462 26.0318 8.47152 26.451 7.27227 27.2379C6.07303 28.0249 5.12994 29.1451 4.559 30.461H0V19.19L0.14 18.939L5.996 3.655H19.055L18.955 17.755H20.573ZM2.418 17.233H17.351L17.451 5.09H6.594L2.418 17.233ZM0 32.446H3.863V34.403H0V32.446ZM18.4829 32.446H41.3389V34.403H18.4829V32.446ZM61.7341 32.446H55.0771V34.403H61.7341V32.446ZM11.1289 27.6709C9.80508 27.6711 8.52233 28.1303 7.49915 28.9702C6.47597 29.8101 5.77566 30.9788 5.51755 32.2772C5.25944 33.5756 5.45948 34.9233 6.08361 36.0907C6.70774 37.2581 7.71733 38.173 8.94037 38.6795C10.1634 39.186 11.5242 39.2528 12.791 38.8684C14.0577 38.4841 15.1521 37.6724 15.8875 36.5717C16.6229 35.4711 16.9539 34.1494 16.8242 32.832C16.6944 31.5146 16.1119 30.283 15.1759 29.3469C14.1021 28.2742 12.6466 27.6714 11.1289 27.6709ZM11.1289 36.4059C10.3843 36.4053 9.66655 36.1278 9.11518 35.6275C8.56381 35.1271 8.21821 34.4396 8.14557 33.6986C8.07293 32.9576 8.27845 32.216 8.72216 31.6181C9.16587 31.0202 9.81607 30.6086 10.5464 30.4635C11.2766 30.3183 12.0348 30.4499 12.6734 30.8326C13.3121 31.2154 13.7856 31.822 14.0019 32.5344C14.2182 33.2469 14.1618 34.0143 13.8437 34.6875C13.5256 35.3607 12.9686 35.8916 12.2809 36.1769C11.9155 36.3279 11.5241 36.4057 11.1289 36.4059ZM44.5926 28.9703C45.6163 28.1301 46.8997 27.6709 48.224 27.6709C49.7417 27.6717 51.1971 28.2744 52.271 29.3469C53.2075 30.2832 53.7904 31.5153 53.9204 32.8332C54.0503 34.1511 53.7193 35.4733 52.9837 36.5745C52.248 37.6757 51.1533 38.4878 49.8861 38.8723C48.6188 39.2568 47.2574 39.19 46.0339 38.6833C44.8104 38.1766 43.8004 37.2613 43.176 36.0934C42.5517 34.9255 42.3516 33.5773 42.61 32.2784C42.8683 30.9795 43.569 29.8104 44.5926 28.9703ZM46.3095 35.7249C46.8496 36.1666 47.5262 36.4073 48.224 36.4059C49.022 36.404 49.7867 36.0862 50.351 35.5219C50.8441 35.0283 51.1508 34.379 51.2188 33.6845C51.2867 32.9901 51.1117 32.2936 50.7236 31.7138C50.3355 31.134 49.7583 30.7067 49.0904 30.5049C48.4225 30.303 47.7053 30.339 47.061 30.6068C46.4167 30.8746 45.8852 31.3575 45.5572 31.9733C45.2291 32.5891 45.1248 33.2996 45.262 33.9837C45.3992 34.6678 45.7694 35.2832 46.3095 35.7249Z" fill="#D9D9D9"/>
</g>
<defs>
<clipPath id="clip0_1083_517">
<rect width="61.82" height="39.123" fill="white"/>
</clipPath>
</defs>
</svg>
