<svg width="73" height="38" viewBox="0 0 73 38" fill="none" xmlns="http://www.w3.org/2000/svg">
<g clip-path="url(#clip0_1083_501)">
<path fill-rule="evenodd" clip-rule="evenodd" d="M12.133 20.99V20.9901H0V17.2991H12.1328V0H72.8368V20.99H60.1798C59.1037 18.5127 57.3273 16.4038 55.0688 14.9224C52.8103 13.4411 50.1682 12.652 47.4673 12.652C44.7664 12.652 42.1243 13.4411 39.8658 14.9224C37.6073 16.4038 35.8309 18.5127 34.7548 20.99H12.133ZM34.4088 24.73H12.1328V28.417H34.4088V24.73ZM72.8311 24.73H60.2861V28.417H72.8311V24.73ZM40.6736 18.1594C42.6062 16.5795 45.0268 15.7188 47.523 15.7239C50.3794 15.7302 53.1167 16.8687 55.135 18.8899C56.8986 20.6565 57.9948 22.98 58.237 25.4644C58.4792 27.9488 57.8522 30.4403 56.463 32.5142C55.0738 34.5881 53.0083 36.116 50.6187 36.8375C48.229 37.559 45.6631 37.4293 43.3584 36.4707C41.0536 35.5121 39.1526 33.7839 37.9794 31.5805C36.8063 29.3772 36.4336 26.8352 36.9249 24.3879C37.4161 21.9405 38.741 19.7393 40.6736 18.1594ZM43.7213 30.6991C44.7608 31.6474 46.1159 32.1752 47.523 32.1799C48.269 32.1824 49.0081 32.0377 49.698 31.7539C50.9994 31.2187 52.0552 30.2187 52.6602 28.9483C53.2652 27.6778 53.3761 26.2278 52.9713 24.8802C52.5665 23.5325 51.675 22.3836 50.4701 21.6568C49.2653 20.9299 47.8331 20.6772 46.4523 20.9476C45.0714 21.2181 43.8404 21.9924 42.9988 23.1201C42.1571 24.2478 41.765 25.6481 41.8985 27.0489C42.032 28.4497 42.6817 29.7507 43.7213 30.6991Z" fill="#D9D9D9"/>
</g>
<defs>
<clipPath id="clip0_1083_501">
<rect width="72.837" height="37.299" fill="white"/>
</clipPath>
</defs>
</svg>
