<svg width="79" height="40" viewBox="0 0 79 40" fill="none" xmlns="http://www.w3.org/2000/svg">
<g clip-path="url(#clip0_1082_478)">
<path fill-rule="evenodd" clip-rule="evenodd" d="M58.435 14.589H75.011L78.08 26.366V28.089L75.263 30.899H71.056C71.0104 28.2553 69.9282 25.7354 68.0425 23.8819C66.1568 22.0285 63.6186 20.9899 60.9745 20.9899C58.3304 20.9899 55.7922 22.0285 53.9065 23.8819C52.0208 25.7354 50.9386 28.2553 50.893 30.899H44.156C44.1081 28.2535 43.0239 25.7325 41.1367 23.878C39.2495 22.0235 36.7099 20.9837 34.064 20.982C31.5857 20.9805 29.1937 21.892 27.3448 23.5424C25.4959 25.1928 24.3198 27.4664 24.041 29.929L18.53 33.875C16.819 36.949 14.313 37.508 10.419 37.508H0V36.33H3.153L9.767 23.648L8.859 22.38L8.951 21.02C8.951 21.02 18.217 26.489 19.266 30.789L20.838 28.099V18.481C20.838 18.3624 20.8614 18.2449 20.907 18.1354C20.9525 18.0259 21.0193 17.9265 21.1034 17.8428C21.1875 17.7592 21.2873 17.693 21.397 17.6481C21.5068 17.6031 21.6244 17.5803 21.743 17.581C21.8996 17.582 22.0532 17.6244 22.1881 17.704C22.323 17.7836 22.4344 17.8974 22.511 18.034H25.992V17.489H35.471L40.941 14.95L43.207 16.76V1.442L43.764 0H58.435V14.589ZM22.641 24.996L23.911 22.829L30.566 19.751H25.993V19.028H22.641V24.996ZM44.296 16.538H50.081L50.078 1.179H44.296V16.538ZM51.018 11.51H56.802L56.799 1.179H51.018V11.51ZM34.0659 22.877C32.1672 22.8772 30.3274 23.5358 28.8599 24.7406C27.3924 25.9453 26.3881 27.6217 26.0181 29.484C25.6482 31.3462 25.9354 33.2792 26.831 34.9534C27.7265 36.6276 29.1749 37.9395 30.9293 38.6654C32.6837 39.3914 34.6355 39.4865 36.4522 38.9346C38.2689 38.3827 39.838 37.2179 40.8921 35.6387C41.9462 34.0595 42.42 32.1636 42.2329 30.2742C42.0458 28.3848 41.2093 26.6187 39.8659 25.277C39.1041 24.5156 38.1998 23.9118 37.2046 23.5C36.2094 23.0882 35.1429 22.8765 34.0659 22.877ZM34.0659 35.156C33.1227 35.1557 32.2088 34.8284 31.4799 34.2298C30.7509 33.6313 30.2521 32.7985 30.0683 31.8734C29.8845 30.9483 30.0272 29.988 30.4719 29.1563C30.9167 28.3246 31.6361 27.6728 32.5076 27.312C33.3791 26.9512 34.3486 26.9038 35.2512 27.1777C36.1537 27.4516 36.9334 28.03 37.4573 28.8143C37.9812 29.5986 38.217 30.5402 38.1245 31.4789C38.032 32.4175 37.6169 33.295 36.9499 33.962C36.5712 34.3407 36.1216 34.6411 35.6267 34.846C35.1319 35.0508 34.6015 35.1562 34.0659 35.156ZM60.9672 22.877C58.9298 22.8766 56.9651 23.6341 55.4553 25.0021C53.9454 26.3701 52.9984 28.2508 52.7984 30.2783C52.5984 32.3059 53.1598 34.3353 54.3732 35.972C55.5867 37.6086 57.3655 38.7353 59.3637 39.1331C61.3619 39.5308 63.4366 39.1711 65.1842 38.1238C66.9319 37.0766 68.2275 35.4168 68.8192 33.4672C69.4108 31.5176 69.2561 29.4176 68.3852 27.5757C67.5143 25.7339 65.9894 24.2818 64.1072 23.502C63.1117 23.0893 62.0447 22.8769 60.9672 22.877ZM60.9672 35.156C60.0232 35.158 59.1076 34.8327 58.3766 34.2354C57.6456 33.6381 57.1443 32.8058 56.9582 31.8803C56.7721 30.9548 56.9127 29.9934 57.356 29.16C57.7994 28.3265 58.518 27.6726 59.3894 27.3096C60.2608 26.9466 61.2312 26.8971 62.1351 27.1694C63.039 27.4417 63.8204 28.019 64.3464 28.803C64.8723 29.5869 65.1101 30.529 65.0192 31.4686C64.9284 32.4082 64.5145 33.2873 63.8482 33.956C63.4704 34.3355 63.0215 34.6369 62.5271 34.8428C62.0328 35.0487 61.5027 35.1551 60.9672 35.156Z" fill="#D9D9D9"/>
</g>
<defs>
<clipPath id="clip0_1082_478">
<rect width="78.08" height="39.289" fill="white"/>
</clipPath>
</defs>
</svg>
