<svg width="70" height="42" viewBox="0 0 70 42" fill="none" xmlns="http://www.w3.org/2000/svg">
<path fill-rule="evenodd" clip-rule="evenodd" d="M68.6003 0.5H69.8003V31.4H65.4003V31.3C65.0003 29.5 64.0003 27.9 62.6003 26.8C61.2003 25.7 59.4003 25.1 57.6003 25.1C55.8003 25.1 54.1003 25.8 52.7003 26.9C51.3003 28 50.4003 29.6 50.0003 31.4H19.1003C18.8003 29.6 17.8003 28 16.4003 26.9C15.0003 25.7 13.2003 25.1 11.4003 25.1C9.60029 25.1 7.80029 25.8 6.40029 26.9C5.00029 28 4.10029 29.6 3.70029 31.4H0.300293L0.400293 22.6L0.500293 15.1C0.500293 14.7 0.500293 14.2 0.400293 13.8C0.500292 13.6 0.575291 13.4 0.65029 13.2L0.650293 13.2C0.725293 13 0.800293 12.8 0.900293 12.6L5.70029 1.6C5.8155 1.42719 5.96389 1.32074 6.12634 1.2042L6.12635 1.2042C6.24592 1.11843 6.3731 1.02719 6.50029 0.9C6.80029 0.6 7.20029 0.5 7.60029 0.5H68.6003ZM2.34277 13.2H16.0003L15.9003 2H7.10029L2.34277 13.2ZM41.3003 14.2C42.1003 14.2 42.8003 13.5 42.8003 12.7V6.5C42.8003 5.7 42.1003 5 41.3003 5H22.8003C22.0003 5 21.3003 5.7 21.3003 6.5V12.7C21.3003 13.5 22.0003 14.2 22.8003 14.2H41.3003ZM64.5003 14.2C65.3003 14.2 66.0003 13.5 66.0003 12.7V6.5C66.0003 5.7 65.3003 5 64.5003 5H46.0003C45.2003 5 44.5003 5.7 44.5003 6.5V12.7C44.5003 13.5 45.2003 14.2 46.0003 14.2H64.5003ZM0.100098 33.5999H3.6001V35.7999H0.100098V33.5999ZM19.5 33.5999H50V35.7999H19.5V33.5999ZM69.8999 33.5999H65.8999V35.7999H69.8999V33.5999ZM11.3999 26.5001C10.0999 26.5001 8.89989 26.9001 7.7999 27.6001C6.69989 28.3001 5.89989 29.3001 5.39989 30.5001C4.89989 31.7001 4.79989 33.0001 4.99989 34.2001C5.19989 35.4001 5.8999 36.6001 6.7999 37.5001C7.69989 38.4001 8.7999 39.0001 10.0999 39.3001C11.2999 39.5001 12.5999 39.4001 13.7999 38.9001C14.9999 38.4001 15.9999 37.6001 16.6999 36.5001C17.3999 35.4001 17.7999 34.2001 17.7999 32.9001C17.7999 32.1001 17.5999 31.2001 17.2999 30.4001C16.9999 29.6001 16.4999 28.9001 15.8999 28.3001C15.2999 27.7001 14.5999 27.2001 13.7999 26.9001C13.0999 26.6001 12.1999 26.5001 11.3999 26.5001ZM11.3999 36.2001C10.6999 36.2001 10.0999 36.0001 9.4999 35.6001C8.89989 35.2001 8.4999 34.7001 8.2999 34.1001C7.9999 33.5001 7.9999 32.8001 8.0999 32.2001C8.19989 31.6001 8.4999 31.0001 8.9999 30.5001C9.4999 30.0001 10.0999 29.7001 10.6999 29.6001C11.3999 29.5001 11.9999 29.5001 12.5999 29.8001C13.1999 30.1001 13.6999 30.5001 14.0999 31.0001C14.4999 31.6001 14.6999 32.2001 14.6999 32.9001C14.6999 33.3001 14.5999 33.8001 14.3999 34.2001C14.1999 34.6001 13.9999 35.0001 13.6999 35.3001C13.3999 35.6001 12.9999 35.9001 12.5999 36.0001C12.2999 36.2001 11.7999 36.2001 11.3999 36.2001ZM54.1002 27.6001C55.2002 26.9001 56.4002 26.5001 57.7002 26.5001C58.6002 26.5001 59.4002 26.6001 60.1002 26.9001C60.9002 27.2001 61.6002 27.7001 62.2002 28.3001C62.8002 28.9001 63.3002 29.6001 63.6002 30.4001C63.9002 31.2001 64.1002 32.1001 64.1002 32.9001C64.1002 34.2001 63.7002 35.4001 63.0002 36.5001C62.3002 37.6001 61.3002 38.4001 60.1002 38.9001C58.9002 39.4001 57.6002 39.5001 56.4002 39.3001C55.1002 39.0001 54.0002 38.4001 53.1002 37.5001C52.2002 36.6001 51.5002 35.4001 51.3002 34.2001C51.1002 33.0001 51.2002 31.7001 51.7002 30.5001C52.2002 29.3001 53.0002 28.3001 54.1002 27.6001ZM55.8002 35.6001C56.4002 36.0001 57.0002 36.2001 57.7002 36.2001C58.2002 36.2001 58.6002 36.2001 58.9002 36.0001C59.3002 35.9001 59.7002 35.6001 60.0002 35.3001C60.3002 35.0001 60.5002 34.6001 60.7002 34.2001C60.9002 33.8001 61.0002 33.3001 61.0002 32.9001C61.0002 32.2001 60.8002 31.6001 60.4002 31.0001C60.0002 30.5001 59.5002 30.1001 58.9002 29.8001C58.3002 29.5001 57.7002 29.5001 57.0002 29.6001C56.4002 29.7001 55.8002 30.0001 55.3002 30.5001C54.9002 30.9001 54.5002 31.5001 54.4002 32.2001C54.3002 32.8001 54.4002 33.5001 54.6002 34.1001C54.8002 34.7001 55.2002 35.2001 55.8002 35.6001Z" fill="#D9D9D9"/>
</svg>
