<svg width="90" height="32" viewBox="0 0 90 32" fill="none" xmlns="http://www.w3.org/2000/svg">
<g clip-path="url(#clip0_1081_454)">
<path fill-rule="evenodd" clip-rule="evenodd" d="M89.0661 17.9L89.7321 21.542L90.0081 22.989H79.9871C79.9795 22.9706 79.9697 22.9539 79.9599 22.9374C79.9507 22.9217 79.9415 22.9061 79.9341 22.889C79.5136 20.9242 78.4247 19.166 76.8531 17.914C75.2738 16.6557 73.3113 15.9758 71.292 15.9872C69.2727 15.9987 67.3181 16.7008 65.7531 17.977C64.1968 19.2475 63.1286 21.0178 62.7301 22.987H26.3301C25.9293 21.0095 24.8536 19.2328 23.2871 17.961C21.7123 16.6839 19.7463 15.987 17.7186 15.987C15.691 15.987 13.725 16.6839 12.1501 17.961C10.583 19.2322 9.5071 21.0091 9.10714 22.987H0.0981445L0.498145 22.221C0.440126 22.0089 0.440126 21.7851 0.498145 21.573L1.75214 17.159L4.52314 16.846L5.13014 17.312L7.43614 17.183L8.26414 14.465L2.18314 15.65L2.47214 14.635C2.61052 14.2271 2.85818 13.8649 3.18814 13.588C3.51891 13.3094 3.91917 13.1258 4.34614 13.057L26.7131 9.6C27.6588 9.45117 28.5553 9.07887 29.3281 8.514L39.5351 0.924C40.3041 0.368974 41.2171 0.0480907 42.1641 0H68.6571C69.1142 0.0260775 69.5619 0.140879 69.9751 0.338C70.3874 0.535295 70.7568 0.811897 71.0621 1.152L76.5811 7.972C77.2148 8.68204 78.0338 9.20146 78.9461 9.472L86.6671 10.462C87.1841 10.584 87.6122 10.696 87.8121 10.762L88.1021 10.805L87.9391 10.82C87.8492 10.828 87.8571 10.846 87.9571 10.846H88.1401L89.0661 17.9ZM40.7321 13.644H45.6981V12.349H40.7321V13.644ZM50.4311 8.994C50.7144 8.72419 50.8819 8.35489 50.8981 7.964L51.0041 3.165C51.009 2.876 50.9266 2.59225 50.7677 2.35086C50.6087 2.10946 50.3806 1.92166 50.1131 1.812C49.935 1.73801 49.744 1.69995 49.5511 1.7H43.0851C42.1348 1.7416 41.2136 2.03983 40.4191 2.563L32.3371 8.54C31.6831 9.023 31.8141 9.418 32.6281 9.418H49.3751C49.7685 9.41718 50.1465 9.26541 50.4311 8.994ZM60.0551 13.253H65.0211L65.0171 11.96H60.0551V13.253ZM67.2811 8.99767C67.4021 8.85933 67.4909 8.69584 67.5411 8.519H67.5371C67.5873 8.34317 67.5979 8.15841 67.5681 7.978L66.8761 3.23C66.8044 2.83059 66.5975 2.46799 66.2901 2.203C65.981 1.93735 65.5905 1.78498 65.1831 1.771L53.6651 1.693C53.2737 1.69154 52.8974 1.84463 52.6181 2.119C52.4807 2.25404 52.3712 2.4149 52.2961 2.59234C52.2209 2.76977 52.1815 2.9603 52.1801 3.153V7.953C52.1807 8.14575 52.2194 8.33649 52.2938 8.51428C52.3683 8.69206 52.4772 8.85339 52.6141 8.989C52.8926 9.2638 53.2679 9.41822 53.6591 9.419H66.3041C66.4883 9.42501 66.6715 9.39089 66.8411 9.319C67.0098 9.24577 67.16 9.13602 67.2811 8.99767ZM71.3731 9.419H73.8111L73.8071 9.418C74.6231 9.418 74.8881 8.891 74.3881 8.246L70.3651 2.94C70.0161 2.40396 69.517 1.98246 68.9301 1.728C68.6391 1.706 68.5121 2.336 68.6661 3.128L69.6131 7.979C69.7053 8.37891 69.928 8.73674 70.2461 8.996C70.5653 9.25665 70.9613 9.40526 71.3731 9.419ZM8.35405 26.517C8.31562 26.8729 8.13945 27.1996 7.86324 27.4272C7.58702 27.6548 7.23269 27.7653 6.87605 27.735H1.47605C1.11946 27.765 0.765269 27.6545 0.489111 27.4269C0.212954 27.1993 0.0367199 26.8728 -0.00195312 26.517C0.0362168 26.1606 0.21278 25.8334 0.489749 25.6058C0.766718 25.3782 1.12196 25.2684 1.47905 25.3H6.87905C7.23504 25.2705 7.58847 25.3813 7.864 25.6086C8.13953 25.8359 8.31537 26.1619 8.35405 26.517ZM62.5771 26.5171C62.5377 26.8727 62.3611 27.199 62.0849 27.4264C61.8087 27.6539 61.4547 27.7646 61.0981 27.7351H28.1661C27.809 27.7655 27.4542 27.6551 27.1773 27.4275C26.9005 27.2 26.7235 26.8733 26.6841 26.5171C26.723 26.1608 26.8999 25.8339 27.1769 25.6064C27.4539 25.3789 27.809 25.269 28.1661 25.3001H61.0981C61.4545 25.2706 61.8084 25.3812 62.0846 25.6084C62.3608 25.8357 62.5374 26.1617 62.5771 26.5171ZM89.4216 27.4275C89.6984 27.1999 89.8754 26.8732 89.9148 26.517C89.8759 26.1618 89.6999 25.8359 89.4242 25.6086C89.1485 25.3812 88.7949 25.2705 88.4388 25.3H81.9058C81.5488 25.2691 81.1938 25.3792 80.9169 25.6066C80.64 25.834 80.463 26.1608 80.4238 26.517C80.4632 26.8732 80.6402 27.1999 80.9171 27.4275C81.1939 27.655 81.5487 27.7654 81.9058 27.735H88.4328C88.7899 27.7654 89.1447 27.655 89.4216 27.4275ZM17.7078 17.5691C16.2888 17.5683 14.901 17.9857 13.7178 18.7691C12.5387 19.5479 11.6177 20.6596 11.0718 21.9631C10.5283 23.2637 10.3858 24.6971 10.6627 26.0792C10.9396 27.4614 11.6232 28.7292 12.6258 29.7201C13.3789 30.4657 14.2871 31.0364 15.2856 31.3914C16.2842 31.7465 17.3487 31.8772 18.4035 31.7744C19.4583 31.6716 20.4776 31.3378 21.3888 30.7966C22.3 30.2554 23.0808 29.5201 23.6758 28.6431C24.5984 27.2763 25.0142 25.6301 24.8513 23.9891C24.6885 22.3482 23.9571 20.8158 22.7838 19.6571C21.433 18.3195 19.6088 17.5691 17.7078 17.5691ZM17.7078 28.4261C16.961 28.427 16.2304 28.2075 15.6078 27.7951C15.1442 27.4906 14.7544 27.0863 14.4672 26.6118C14.1799 26.1373 14.0024 25.6046 13.9475 25.0526C13.8927 24.5006 13.962 23.9434 14.1503 23.4216C14.3386 22.8999 14.6411 22.4268 15.0358 22.0371C15.4318 21.645 15.9093 21.3449 16.4344 21.1582C16.9595 20.9715 17.5192 20.9028 18.0739 20.9569C18.6285 21.011 19.1645 21.1867 19.6435 21.4714C20.1226 21.7561 20.5331 22.1428 20.8458 22.6041C21.3308 23.3231 21.5493 24.1889 21.4634 25.0519C21.3776 25.9149 20.9929 26.7207 20.3758 27.3301C19.6656 28.0327 18.7068 28.4266 17.7078 28.4261ZM67.5771 18.7691C68.7605 17.9855 70.1487 17.5682 71.5681 17.5691C73.4688 17.5691 75.2926 18.3195 76.6431 19.6571C77.8163 20.8158 78.5477 22.3482 78.7106 23.9891C78.8735 25.6301 78.4577 27.2763 77.5351 28.6431C76.7396 29.8161 75.6162 30.7287 74.305 31.2669C72.9939 31.8051 71.5532 31.945 70.1631 31.6691C68.7774 31.4022 67.5025 30.7288 66.501 29.7347C65.4994 28.7407 64.8164 27.4709 64.539 26.0873C64.2617 24.7037 64.4025 23.2688 64.9435 21.9655C65.4846 20.6622 66.4013 19.5495 67.5771 18.7691ZM69.4681 27.7951C70.0903 28.2068 70.82 28.4263 71.5661 28.4261C72.5655 28.4271 73.5251 28.0336 74.2361 27.3311C74.8529 26.7214 75.2374 25.9154 75.3232 25.0523C75.409 24.1893 75.1907 23.3233 74.7061 22.6041C74.3935 22.1427 73.983 21.7558 73.5039 21.471C73.0249 21.1862 72.4889 21.0105 71.9342 20.9564C71.3795 20.9022 70.8197 20.971 70.2946 21.1578C69.7694 21.3446 69.292 21.6448 68.8961 22.0371C68.3687 22.5581 68.0091 23.2247 67.8633 23.9515C67.7176 24.6783 67.7924 25.4321 68.0781 26.1161C68.365 26.801 68.8488 27.3853 69.4681 27.7951Z" fill="#00972A"/>
</g>
<defs>
<clipPath id="clip0_1081_454">
<rect width="90.008" height="31.803" fill="white"/>
</clipPath>
</defs>
</svg>
