<svg width="46" height="42" viewBox="0 0 46 42" fill="none" xmlns="http://www.w3.org/2000/svg">
<g clip-path="url(#clip0_1083_495)">
<path fill-rule="evenodd" clip-rule="evenodd" d="M43.2487 22.2733C35.1175 14.0415 20.9925 21.0537 22.8218 32.6148C22.8845 33.0141 22.968 33.41 23.0718 33.8007H14.773C14.5718 28.9013 8.47416 25.5111 3.8278 27.9501V18.8434H19.0352C19.1436 18.8438 19.2493 18.8089 19.3361 18.744C19.423 18.6791 19.4865 18.5877 19.5169 18.4836L25.1724 3.95919H39.1968L43.52 15.822L43.2426 22.2641L43.2487 22.2733ZM9.40708 10.0568H8.45891V13.0568H7.76683V17.8312H10.0992V13.0629H9.40708V10.0568ZM39.5535 2.95614H23.3035V0.404297H40.8127V2.95614H39.5535ZM11.2181 29.6574C10.6011 29.1862 9.90962 28.8214 9.17233 28.5782C8.06045 28.2035 6.86847 28.1337 5.72047 28.3761C4.57248 28.6185 3.51043 29.1641 2.64487 29.9562C2.5595 30.0324 2.47413 30.1117 2.39181 30.194C1.14165 31.4459 0.439453 33.1428 0.439453 34.912C0.439453 36.6812 1.14165 38.3781 2.39181 39.63C6.58695 43.8252 13.7821 40.8343 13.7821 34.9135C13.7936 33.8983 13.5678 32.8944 13.1226 31.9818C12.6775 31.0693 12.0253 30.2733 11.2181 29.6574ZM10.1571 31.819C9.75449 31.4151 9.27596 31.0948 8.74905 30.8766C8.22213 30.6584 7.65726 30.5466 7.08696 30.5477C3.12353 30.5477 1.32779 35.4257 4.03817 37.9867C8.27294 41.9867 14.0992 35.7855 10.1358 31.819H10.1571ZM30.1755 26.1971C29.127 27.244 28.4741 28.6222 28.3281 30.0967C28.1821 31.5711 28.552 33.0506 29.3748 34.2829C30.1976 35.5151 31.4223 36.4238 32.8401 36.8541C34.2579 37.2844 35.7811 37.2096 37.15 36.6425C38.5188 36.0753 39.6486 35.051 40.3467 33.7441C41.0448 32.4372 41.268 30.9286 40.9782 29.4755C40.6885 28.0224 39.9037 26.7148 38.7577 25.7756C37.6117 24.8364 36.1754 24.3238 34.6938 24.3251C33.8545 24.3242 33.0232 24.4891 32.2479 24.8103C31.4725 25.1316 30.7682 25.6028 30.1755 26.1971ZM27.0139 23.0324C24.9764 25.0701 23.8317 27.8337 23.8317 30.7154C23.8317 33.597 24.9764 36.3606 27.0139 38.3983C33.8401 45.2215 45.5627 40.3709 45.5627 30.7154C45.5627 21.0598 33.8401 16.2062 27.0169 23.0324H27.0139ZM27.6633 14.072H37.5505C37.6839 14.072 37.8118 14.019 37.9062 13.9247C38.0005 13.8303 38.0535 13.7024 38.0535 13.569V6.7031C38.0535 6.56968 38.0005 6.44173 37.9062 6.34738C37.8118 6.25304 37.6839 6.20005 37.5505 6.20005H27.648C27.5146 6.20005 27.3866 6.25304 27.2923 6.34738C27.198 6.44173 27.145 6.56968 27.145 6.7031V13.5751C27.145 13.7085 27.198 13.8364 27.2923 13.9308C27.3866 14.0251 27.5146 14.0781 27.648 14.0781L27.6633 14.072ZM6.9772 22.8617H16.459C16.5924 22.8617 16.7203 22.8087 16.8147 22.7143C16.909 22.62 16.962 22.4921 16.962 22.3586V20.6391C16.962 20.5057 16.909 20.3777 16.8147 20.2834C16.7203 20.1891 16.5924 20.1361 16.459 20.1361H6.9772C6.84378 20.1361 6.71583 20.1891 6.62149 20.2834C6.52715 20.3777 6.47415 20.5057 6.47415 20.6391V22.3586C6.47415 22.4921 6.52715 22.62 6.62149 22.7143C6.71583 22.8087 6.84378 22.8617 6.9772 22.8617Z" fill="#D9D9D9"/>
</g>
<defs>
<clipPath id="clip0_1083_495">
<rect width="46" height="42" fill="white"/>
</clipPath>
</defs>
</svg>
