<svg width="70" height="42" viewBox="0 0 70 42" fill="none" xmlns="http://www.w3.org/2000/svg">
<g clip-path="url(#clip0_1081_469)">
<path fill-rule="evenodd" clip-rule="evenodd" d="M47.2669 21.8728H45.5365L45.5306 25.2418L47.198 25.6645C47.747 24.5172 48.4951 23.4603 49.4204 22.5458C51.5367 20.4542 54.4066 19.2793 57.399 19.2793C59.6311 19.2793 61.8131 19.9336 63.6689 21.1596C65.5248 22.3856 66.9712 24.1281 67.8253 26.1668C68.6793 28.2054 68.9026 30.4487 68.4669 32.6128C68.0313 34.777 66.9562 36.7648 65.3777 38.3248C63.7991 39.8849 61.7881 40.9472 59.5988 41.3773C57.4096 41.8075 55.1404 41.5861 53.0784 40.7413C51.0164 39.8965 49.2542 38.4661 48.0145 36.6311C46.7749 34.7962 46.1135 32.639 46.1141 30.4324C46.1142 30.0387 46.1354 29.6471 46.177 29.2592L44.2541 28.771L42.4853 32.4518H25.7583C25.7583 32.4518 27.8543 23.6652 18.2144 19.2529L17.4245 21.069C17.4702 21.0983 17.5158 21.1279 17.5611 21.1579C19.4165 22.3841 20.8624 24.1266 21.7161 26.1652C22.5698 28.2037 22.7929 30.4467 22.3571 32.6106C21.9213 34.7745 20.8463 36.762 19.268 38.3219C17.6896 39.8818 15.6788 40.9441 13.4898 41.3743C11.3008 41.8045 9.03199 41.5834 6.9701 40.7389C4.90822 39.8945 3.14592 38.4646 1.90605 36.63C0.666172 34.7955 0.00439453 32.6387 0.00439453 30.4324C0.00478162 28.9674 0.297052 27.5168 0.864532 26.1634C1.43201 24.81 2.26359 23.5804 3.31176 22.5447C4.35994 21.5091 5.6042 20.6877 6.9735 20.1274C8.34281 19.5671 9.81033 19.2789 11.2923 19.2793V19.2764C12.1939 19.2766 13.0874 19.3836 13.9544 19.5919L14.8713 17.4839C10.5348 14.5521 16.3365 11.8505 16.8937 11.6057C16.1629 11.7992 15.4097 11.8972 14.6532 11.8971V6.14132C16.5989 6.14132 18.2822 6.74459 19.1666 7.61889L21.2597 2.81609C21.1677 2.53742 21.1443 2.24108 21.1915 1.95169C21.2386 1.6623 21.355 1.38821 21.5309 1.15222C21.7067 0.916223 21.937 0.725131 22.2026 0.594826C22.4682 0.46452 22.7615 0.398768 23.0579 0.403026H29.3519C29.8531 0.403026 30.3338 0.59984 30.6881 0.950174C31.0425 1.30051 31.2416 1.77566 31.2416 2.2711C31.2416 2.76655 31.0425 3.24171 30.6881 3.59204C30.3338 3.94237 29.8531 4.13919 29.3519 4.13919H24.7914L22.8929 8.51067L25.437 5.08051L39.9205 9.74343L39.9618 12.6257H46.1526L52.2933 7.96278H69.999L47.5323 21.6922L47.2669 21.8728ZM11.907 24.2989C10.8873 24.1985 9.85499 24.348 8.90262 24.7381C7.76349 25.2047 6.78989 25.9947 6.10491 27.0083C5.41993 28.0218 5.05431 29.2134 5.05431 30.4324C5.05393 31.2423 5.21501 32.0444 5.52836 32.7927C5.84171 33.5411 6.30119 34.2211 6.88051 34.7938C7.45984 35.3665 8.14767 35.8207 8.90467 36.1305C9.66167 36.4402 10.473 36.5995 11.2923 36.5991V36.5962C12.5253 36.5956 13.7305 36.2336 14.7555 35.556C15.7804 34.8783 16.5791 33.9155 17.0506 32.7892C17.522 31.6628 17.6451 30.4236 17.4042 29.2281C17.1633 28.0326 16.5692 26.9346 15.6971 26.0729C15.5935 25.9705 15.4865 25.872 15.3763 25.7775L14.1897 28.5054C14.3181 28.6942 14.4278 28.8961 14.5167 29.1083C14.781 29.7387 14.8503 30.4323 14.7159 31.1016C14.5814 31.7708 14.2493 32.3857 13.7614 32.8684C13.2736 33.351 12.6519 33.6799 11.975 33.8134C11.2981 33.9469 10.5964 33.8789 9.9586 33.6182C9.32075 33.3575 8.77543 32.9157 8.39154 32.3486C8.00765 31.7816 7.80244 31.1147 7.80186 30.4324C7.80108 29.9789 7.89081 29.5297 8.06591 29.1106C8.24101 28.6914 8.49804 28.3105 8.82228 27.9897C9.14651 27.6689 9.53158 27.4145 9.95542 27.2411C10.2021 27.1401 10.4591 27.0677 10.7212 27.0249L11.907 24.2989ZM51.1647 30.5256C51.1762 31.3035 51.3366 32.0726 51.6378 32.7921C51.9509 33.5402 52.4102 34.2201 52.9892 34.7927C53.5682 35.3654 54.2557 35.8197 55.0123 36.1296C55.769 36.4396 56.58 36.5991 57.399 36.5991C58.6321 36.5991 59.8375 36.2377 60.8627 35.5605C61.888 34.8834 62.6872 33.9209 63.1592 32.7948C63.6312 31.6686 63.7548 30.4295 63.5145 29.2339C63.2741 28.0383 62.6806 26.94 61.8089 26.0779C60.9372 25.2157 59.8265 24.6285 58.6172 24.3903C57.408 24.1521 56.1544 24.2738 55.015 24.7399C53.8988 25.1964 52.9413 25.9636 52.2582 26.9474L55.2573 27.7078C55.8665 27.2397 56.6193 26.9818 57.399 26.9818C58.0894 26.9818 58.7642 27.1842 59.3382 27.5634C59.9122 27.9425 60.3596 28.4814 60.6238 29.1119C60.888 29.7424 60.9571 30.4362 60.8224 31.1056C60.6877 31.7749 60.3553 32.3897 59.8672 32.8723C59.379 33.3549 58.7571 33.6835 58.08 33.8166C57.4029 33.9498 56.7011 33.8815 56.0633 33.6203C55.4255 33.3591 54.8804 32.9169 54.4969 32.3494C54.2685 32.0114 54.1035 31.6382 54.0074 31.2473L51.1647 30.5256Z" fill="#D9D9D9"/>
</g>
<defs>
<clipPath id="clip0_1081_469">
<rect width="70" height="42" fill="white"/>
</clipPath>
</defs>
</svg>
